<svg width="16" height="16" viewBox="0 0 16 16" fill="none" xmlns="http://www.w3.org/2000/svg">
<g clip-path="url(#clip0_501_2810)">
<path fill-rule="evenodd" clip-rule="evenodd" d="M12.9987 9.361C14.6549 9.361 16 10.7048 16 12.3623C16 14.0186 14.6562 15.3636 12.9987 15.3636C11.3411 15.3636 9.9974 14.0199 9.9974 12.3623C9.9974 11.2933 10.4609 10.4508 11.3021 9.9196L10.5612 8.6748H8.60807C8.80599 8.24772 8.92969 7.88184 8.90495 7.6722H10.8997C10.9818 7.6722 11.0586 7.69434 11.1263 7.7334L11.3359 7.2972L11.3828 7.29199C11.401 7.28939 11.4206 7.28678 11.4401 7.28418C11.9766 7.18392 12.2969 6.84538 12.4297 6.43783C12.4896 6.25423 12.5052 6.05762 12.4805 5.86621C12.457 5.68001 12.3932 5.49772 12.2956 5.33626C12.2526 5.26595 12.2031 5.19954 12.1484 5.13704H12.6471V5.13965C12.7109 5.13965 12.776 5.15397 12.8385 5.18262C13.0651 5.28809 13.1628 5.55762 13.056 5.78418L11.7318 8.57324L12.2396 9.45866C12.487 9.39225 12.7422 9.361 12.9987 9.361ZM4.44531 4.61881L7.18359 2.61621C7.50521 2.41569 7.85156 2.28158 8.13151 2.31803C8.36458 2.34928 8.57943 2.47559 8.77474 2.72298C9.36849 3.46387 9.66276 4.48079 9.99089 5.60189L11.1458 5.46647C11.806 5.43652 11.9792 6.40658 11.3008 6.53418L10.1107 6.66569C9.57943 6.72559 9.19141 6.87272 8.90234 6.27376L8.25651 4.65397L6.39844 5.94564C6.28385 6.06543 6.26693 6.18392 6.38151 6.30371L7.77604 7.31803C7.95964 7.44173 8.11458 7.52897 8.15234 7.77506C8.20963 8.14486 6.64453 10.6019 6.37109 11.0758C5.89062 11.6097 4.97917 11.1266 5.35807 10.4795L6.41797 8.24642C6.10286 8.05892 5.79687 7.87142 5.5026 7.68392C4.52083 7.06152 3.21484 5.63314 4.44531 4.61881ZM10.625 0.635742C11.3398 0.635742 11.9193 1.21517 11.9193 1.93001C11.9193 2.64486 11.3398 3.22428 10.625 3.22428C9.91016 3.22428 9.33073 2.64486 9.33073 1.93001C9.33073 1.21517 9.91016 0.635742 10.625 0.635742ZM5.37109 8.6735H4.75L4.38151 9.74512C4.51562 9.80892 4.64193 9.88053 4.76042 9.95866L4.67188 10.1462C4.52995 10.4105 4.48307 10.6709 4.51042 10.9118C4.34115 10.736 4.14193 10.5889 3.91927 10.4808L3.16927 12.1761C3.06901 12.4053 2.80078 12.5094 2.57161 12.4092C2.34245 12.3089 2.23828 12.0407 2.33984 11.8115L3.02214 10.2699C3.01562 10.2699 3.00781 10.2699 3.0013 10.2699C1.84505 10.2699 0.908854 11.2074 0.908854 12.3636C0.908854 13.5186 1.84635 14.4561 3.0013 14.4561C4.15755 14.4561 5.09375 13.5186 5.09375 12.3636C5.09375 12.1605 5.0651 11.9652 5.01172 11.779C5.03125 11.7933 5.05078 11.8076 5.07161 11.8219C5.23828 11.9352 5.43099 12.0133 5.63151 12.0459C5.7487 12.0654 5.86849 12.0706 5.98958 12.0615C5.9987 12.1605 6.0026 12.2607 6.0026 12.3636C6.0026 14.0199 4.65885 15.3649 3.0013 15.3649C1.34375 15.3636 0 14.0186 0 12.3623C0 10.7048 1.34375 9.361 3.0013 9.361C3.14062 9.361 3.27734 9.37012 3.41276 9.38835L3.94531 7.94173C4.00651 7.80111 4.13151 7.70736 4.27214 7.68001C4.54036 7.93652 4.82812 8.15788 5.09375 8.32585C5.17448 8.37663 5.28906 8.44824 5.4349 8.53809L5.37109 8.6735ZM2.88151 5.62533H3.18359C3.1888 5.77376 3.20964 5.9235 3.2474 6.07194C3.32552 6.38835 3.47526 6.69173 3.66797 6.97428H2.88281C2.73568 6.97428 2.60026 6.91309 2.5013 6.81543C2.40104 6.71517 2.33984 6.57845 2.33984 6.42741V6.1748C2.33984 6.02246 2.40104 5.88444 2.5013 5.78678C2.59766 5.68652 2.73307 5.62663 2.88151 5.62533ZM12.7734 10.2803L13.5013 11.4014C13.638 11.611 13.5781 11.891 13.3685 12.0277C13.1589 12.1644 12.8789 12.1045 12.7422 11.8949L11.8919 10.585C11.2995 10.9548 10.9049 11.6123 10.9049 12.3623C10.9049 13.5173 11.8424 14.4548 12.9987 14.4548C14.1549 14.4548 15.0924 13.5173 15.0924 12.3623C15.0924 11.2061 14.1549 10.2686 12.9987 10.2686C12.9232 10.2673 12.8477 10.2725 12.7734 10.2803Z" fill="white"/>
</g>
<defs>
<clipPath id="clip0_501_2810">
<rect width="16" height="16" fill="white"/>
</clipPath>
</defs>
</svg>
