<svg width="24" height="25" viewBox="0 0 24 25" fill="none" xmlns="http://www.w3.org/2000/svg">
<path d="M7.5 13.5C6.60998 13.5 5.73995 13.2361 4.99993 12.7416C4.25991 12.2471 3.68314 11.5443 3.34254 10.7221C3.00195 9.89981 2.91283 8.99501 3.08647 8.1221C3.2601 7.24918 3.68868 6.44736 4.31802 5.81802C4.94736 5.18868 5.74918 4.7601 6.62209 4.58647C7.49501 4.41283 8.39981 4.50195 9.22208 4.84254C10.0443 5.18314 10.7471 5.75991 11.2416 6.49994C11.7361 7.23996 12 8.10999 12 9C11.9987 10.1931 11.5241 11.3369 10.6805 12.1805C9.83689 13.0241 8.69307 13.4987 7.5 13.5ZM7.5 6.5C7.00555 6.5 6.5222 6.64662 6.11107 6.92133C5.69995 7.19603 5.37952 7.58648 5.1903 8.04329C5.00108 8.50011 4.95157 9.00278 5.04804 9.48773C5.1445 9.97268 5.3826 10.4181 5.73223 10.7678C6.08186 11.1174 6.52732 11.3555 7.01227 11.452C7.49723 11.5484 7.99989 11.4989 8.45671 11.3097C8.91352 11.1205 9.30397 10.8001 9.57867 10.3889C9.85338 9.9778 10 9.49446 10 9C10 8.33696 9.73661 7.70108 9.26777 7.23223C8.79893 6.76339 8.16304 6.5 7.5 6.5ZM15 23.5V23C15 21.0109 14.2098 19.1032 12.8033 17.6967C11.3968 16.2902 9.48912 15.5 7.5 15.5C5.51088 15.5 3.60322 16.2902 2.1967 17.6967C0.790176 19.1032 0 21.0109 0 23L0 23.5C0 23.7652 0.105357 24.0196 0.292893 24.2071C0.48043 24.3946 0.734784 24.5 1 24.5C1.26522 24.5 1.51957 24.3946 1.70711 24.2071C1.89464 24.0196 2 23.7652 2 23.5V23C2 21.5413 2.57946 20.1424 3.61091 19.1109C4.64236 18.0795 6.04131 17.5 7.5 17.5C8.95869 17.5 10.3576 18.0795 11.3891 19.1109C12.4205 20.1424 13 21.5413 13 23V23.5C13 23.7652 13.1054 24.0196 13.2929 24.2071C13.4804 24.3946 13.7348 24.5 14 24.5C14.2652 24.5 14.5196 24.3946 14.7071 24.2071C14.8946 24.0196 15 23.7652 15 23.5ZM24 18.5C24 17.1487 23.6088 15.8263 22.8737 14.6924C22.1386 13.5585 21.091 12.6616 19.8574 12.11C18.6238 11.5584 17.2569 11.3756 15.9218 11.5837C14.5866 11.7919 13.3402 12.3821 12.333 13.283C12.2338 13.3702 12.1528 13.4762 12.0948 13.5949C12.0367 13.7135 12.0028 13.8425 11.9949 13.9744C11.987 14.1063 12.0053 14.2384 12.0487 14.3631C12.0922 14.4879 12.1599 14.6028 12.2481 14.7012C12.3362 14.7996 12.4429 14.8796 12.5621 14.9366C12.6813 14.9935 12.8106 15.0262 12.9426 15.0329C13.0745 15.0396 13.2064 15.0201 13.3308 14.9754C13.4551 14.9308 13.5694 14.862 13.667 14.773C14.3865 14.1296 15.2767 13.7082 16.2304 13.5597C17.1841 13.4111 18.1604 13.5417 19.0414 13.9358C19.9225 14.3299 20.6706 14.9705 21.1956 15.7804C21.7206 16.5903 22 17.5348 22 18.5C22 18.7652 22.1054 19.0196 22.2929 19.2071C22.4804 19.3946 22.7348 19.5 23 19.5C23.2652 19.5 23.5196 19.3946 23.7071 19.2071C23.8946 19.0196 24 18.7652 24 18.5ZM17.5 9.5C16.61 9.5 15.74 9.23608 14.9999 8.74162C14.2599 8.24715 13.6831 7.54434 13.3425 6.72208C13.0019 5.89981 12.9128 4.99501 13.0865 4.1221C13.2601 3.24918 13.6887 2.44736 14.318 1.81802C14.9474 1.18869 15.7492 0.760102 16.6221 0.586468C17.495 0.412835 18.3998 0.50195 19.2221 0.842544C20.0443 1.18314 20.7471 1.75991 21.2416 2.49994C21.7361 3.23996 22 4.10999 22 5C21.9987 6.19307 21.5241 7.33689 20.6805 8.18052C19.8369 9.02415 18.6931 9.49868 17.5 9.5ZM17.5 2.5C17.0055 2.5 16.5222 2.64662 16.1111 2.92133C15.7 3.19603 15.3795 3.58648 15.1903 4.04329C15.0011 4.50011 14.9516 5.00278 15.048 5.48773C15.1445 5.97268 15.3826 6.41814 15.7322 6.76777C16.0819 7.1174 16.5273 7.3555 17.0123 7.45197C17.4972 7.54843 17.9999 7.49892 18.4567 7.3097C18.9135 7.12048 19.304 6.80005 19.5787 6.38893C19.8534 5.9778 20 5.49446 20 5C20 4.33696 19.7366 3.70108 19.2678 3.23223C18.7989 2.76339 18.163 2.5 17.5 2.5Z" fill="#374957"/>
</svg>
