<svg width="24" height="24" viewBox="0 0 24 24" fill="none" xmlns="http://www.w3.org/2000/svg">
<path d="M4 15.6256C4.92578 15.2689 5.70573 15.5019 6.78906 15.8275C7.07161 15.9121 7.37891 16.0046 7.65625 16.0775C7.90365 16.1426 8.28385 16.0019 8.68229 15.8548C9.17969 15.6712 9.69792 15.4811 10.319 15.4967C10.7878 15.5085 11.1823 15.7233 11.5807 15.9408C11.8307 16.0775 12.0846 16.2155 12.2253 16.2207C12.3867 16.2259 12.6263 16.0853 12.8659 15.9447C13.2565 15.7142 13.6471 15.4837 14.1901 15.4655C14.7734 15.446 15.2253 15.6465 15.6732 15.8457C15.9284 15.959 16.1823 16.0723 16.3945 16.0879C16.5951 16.1035 16.8633 15.9316 17.1237 15.7663C17.4857 15.5345 17.8411 15.3079 18.3086 15.2559C18.8646 15.1947 19.4714 15.4564 19.987 15.6777L20 15.6842C20 16.2116 20 16.7402 20 17.2676C19.8893 17.235 19.7747 17.1908 19.6562 17.1426C19.5742 17.1087 19.4896 17.0723 19.4036 17.0358C19.0508 16.8848 18.6354 16.7051 18.4701 16.7233C18.3372 16.7376 18.1276 16.8717 17.9141 17.0085C17.8359 17.0579 17.7565 17.1087 17.6771 17.1582C17.2812 17.3991 16.8516 17.6048 16.2852 17.5618C15.8242 17.5267 15.4492 17.36 15.0729 17.1921L15.0404 17.1777C14.7591 17.0527 14.4766 16.9316 14.237 16.9394C14.0898 16.9447 13.8789 17.0631 13.6654 17.1881L13.6159 17.2168C13.1927 17.4668 12.7682 17.7168 12.1732 17.6947C11.6875 17.6764 11.2786 17.4551 10.8763 17.235L10.8255 17.2077C10.6016 17.0853 10.3867 16.9733 10.2839 16.9707C9.96875 16.9629 9.60547 17.0892 9.2526 17.2194L9.19141 17.2415C8.57422 17.4694 7.98568 17.6855 7.28776 17.5033C6.91276 17.4056 6.62891 17.3197 6.36849 17.2415L6.36068 17.2389C5.41667 16.9551 4.80078 16.7728 4.0625 17.2559C4.04297 17.2689 4.02214 17.2819 4.0013 17.2962V17.2559V15.6256H4ZM15.4466 9.222L17.2904 8.94205C18.4375 8.77018 18.0924 6.70507 16.6224 7.0358L12.4414 7.72591C11.9883 7.80012 11.2109 7.85742 10.8724 8.1595C10.6784 8.33268 10.5977 8.57356 10.6419 8.87434C10.7044 9.30012 11.0599 9.83398 11.2734 10.2207L11.7904 11.1504C12.1667 11.8262 12.3685 11.8913 11.6719 12.265L6.92318 14.8118L7.27083 14.9147L8.3138 14.9303C8.43229 14.8913 8.55599 14.8457 8.68229 14.7988C9.17969 14.6152 9.69792 14.4251 10.319 14.4407C10.7878 14.4525 11.1823 14.6673 11.5807 14.8848L11.7604 14.9811L12.6797 14.9954C12.7409 14.9616 12.8034 14.9251 12.8646 14.8887C13.2552 14.6582 13.6458 14.4277 14.1888 14.4095C14.7721 14.39 15.224 14.5905 15.6719 14.7897C15.9271 14.903 16.181 15.0163 16.3932 15.0319C16.4414 15.0358 16.4935 15.028 16.5482 15.0137L14.1289 10.7116C13.9232 10.3457 13.5534 9.88346 13.6068 9.60481C13.625 9.51106 13.75 9.4733 13.9023 9.44986C14.418 9.37565 14.931 9.30012 15.4466 9.222ZM17.4388 10.1803C18.4505 10.1803 19.2708 11.0006 19.2708 12.0124C19.2708 13.0241 18.4505 13.8444 17.4388 13.8444C16.4271 13.8444 15.6068 13.0241 15.6068 12.0124C15.6081 10.9993 16.4271 10.1803 17.4388 10.1803Z" fill="white"/>
</svg>
