<svg width="13" height="16" viewBox="0 0 13 16" fill="none" xmlns="http://www.w3.org/2000/svg">
<path d="M8.50033 3.00012C9.3288 3.00012 10.0004 2.32853 10.0004 1.50006C10.0004 0.671589 9.3288 0 8.50033 0C7.67186 0 7.00027 0.671589 7.00027 1.50006C7.00027 2.32853 7.67186 3.00012 8.50033 3.00012ZM3.55295 9.92133L3.09043 11.0001H1.00004C0.44783 11.0001 0 11.4479 0 12.0002C0 12.5524 0.44783 13.0002 1.00004 13.0002H3.42045C4.02203 13.0002 4.56362 12.6427 4.79894 12.0911L5.07364 11.4498L4.74019 11.2529C4.19891 10.9332 3.80077 10.4601 3.55295 9.92133ZM12.0005 6.99996H10.6245L9.81007 5.33583C9.41943 4.53736 8.70222 3.95359 7.87937 3.7439L5.65803 3.08325C4.77362 2.87074 3.85265 3.06606 3.13169 3.61889L1.89195 4.56924C1.45349 4.90519 1.37037 5.53272 1.70694 5.97117C2.04352 6.40963 2.67073 6.49182 3.10887 6.15618L4.34923 5.20583C4.58893 5.02176 4.89425 4.95582 5.13895 5.01395L5.59834 5.15051L4.42767 7.88156C4.03328 8.80284 4.38673 9.88195 5.24958 10.3913L7.90531 11.9592L7.04684 14.7009C6.88183 15.2278 7.17528 15.7887 7.70218 15.9537C7.80187 15.985 7.9025 16 8.00156 16C8.42689 16 8.82128 15.7259 8.95535 15.2984L9.94414 12.1402C10.1288 11.4911 9.85382 10.7939 9.26786 10.4404L7.35404 9.31099L8.33251 6.86464L8.96598 8.15938C9.21599 8.67003 9.74476 8.99973 10.3132 8.99973H12.0005C12.5527 8.99973 13.0005 8.5519 13.0005 7.99969C13.0005 7.44748 12.5527 6.99996 12.0005 6.99996Z" fill="white"/>
</svg>
